<svg width="50" height="50" viewBox="0 0 50 50" fill="none" xmlns="http://www.w3.org/2000/svg">
<path d="M25.0006 8.33334C27.2108 8.33334 29.3304 9.21131 30.8932 10.7741C32.456 12.3369 33.334 14.4565 33.334 16.6667C33.334 18.8768 32.456 20.9964 30.8932 22.5592C29.3304 24.122 27.2108 25 25.0006 25C22.7905 25 20.6709 24.122 19.1081 22.5592C17.5453 20.9964 16.6673 18.8768 16.6673 16.6667C16.6673 14.4565 17.5453 12.3369 19.1081 10.7741C20.6709 9.21131 22.7905 8.33334 25.0006 8.33334V8.33334ZM25.0006 29.1667C34.209 29.1667 41.6673 32.8958 41.6673 37.5V41.6667H8.33398V37.5C8.33398 32.8958 15.7923 29.1667 25.0006 29.1667Z" fill="white"/>
</svg>
