<svg width="194" height="51" viewBox="0 0 194 51" fill="none" xmlns="http://www.w3.org/2000/svg">
<g clip-path="url(#clip0_102:90)">
<path d="M22.2505 25.2871V39.8821C22.2505 41.3891 21.9613 42.8309 21.38 44.2075C20.811 45.5405 20.0182 46.7213 18.9984 47.7529C17.9663 48.7721 16.7848 49.5644 15.4511 50.1331C14.0706 50.711 12.6281 51.0031 11.1233 51.0031C9.61541 51.0031 8.17283 50.7141 6.79553 50.1331C5.46176 49.5644 4.28033 48.7721 3.24813 47.7529C2.22837 46.7213 1.43557 45.5405 0.86662 44.2075C0.288342 42.8278 -0.00390625 41.386 -0.00390625 39.8821C-0.00390625 38.3782 0.285233 36.9333 0.86662 35.5568C1.43557 34.2237 2.22837 33.0429 3.24813 32.0113C4.28033 30.9921 5.46176 30.1998 6.79553 29.6311C8.17594 29.0532 9.61852 28.7611 11.1233 28.7611C12.4198 28.7611 13.6727 28.9755 14.879 29.4043C16.0387 29.8207 17.1051 30.4173 18.0782 31.1941V25.2871H22.2505ZM11.1233 46.83C12.0622 46.83 12.9669 46.6498 13.8344 46.2924C14.6583 45.9351 15.392 45.4348 16.0418 44.7978C16.6791 44.1484 17.1703 43.4151 17.5186 42.5917C17.8885 41.7216 18.0751 40.8205 18.0751 39.8821C18.0751 38.9437 17.8885 38.0395 17.5186 37.1725C17.1703 36.3491 16.6791 35.6158 16.0418 34.9664C15.392 34.3294 14.6583 33.8322 13.8344 33.4718C12.9638 33.1113 12.0622 32.9342 11.1233 32.9342C10.1719 32.9342 9.27031 33.1144 8.41222 33.4718C7.579 33.8322 6.84216 34.3294 6.20481 34.9664C5.56746 35.6158 5.07002 36.3522 4.70937 37.1725C4.34873 38.0395 4.17151 38.9437 4.17151 39.8821C4.17151 40.8205 4.35184 41.7247 4.70937 42.5917C5.06691 43.4151 5.56746 44.1484 6.20481 44.7978C6.84216 45.4348 7.579 45.932 8.41222 46.2924C9.27031 46.6498 10.175 46.83 11.1233 46.83Z" fill="#C2CEFF"/>
<path d="M44.2037 38.0737C43.8088 36.5791 42.9911 35.3517 41.7538 34.3915C40.5008 33.4189 39.0831 32.9311 37.4944 32.9311C36.543 32.9311 35.6414 33.1113 34.7833 33.4687C33.9501 33.8291 33.2133 34.3263 32.5759 34.9633C31.9386 35.6127 31.4411 36.3491 31.0805 37.1694C30.7198 38.0364 30.5426 38.9406 30.5426 39.879V50.304H26.3672V39.879C26.3672 38.3751 26.6563 36.9302 27.2377 35.5536C27.8067 34.2206 28.5995 33.0398 29.6192 32.0082C30.6514 30.989 31.8329 30.1967 33.1666 29.628C34.547 29.0501 35.9896 28.758 37.4944 28.758C40.0438 28.758 42.3196 29.541 44.3249 31.104C45.2763 31.8466 46.0815 32.7136 46.7406 33.711C47.4246 34.7302 47.9221 35.824 48.2361 36.9954L44.2037 38.0737Z" fill="#C2CEFF"/>
<path d="M60.9592 28.7611C62.464 28.7611 63.9097 29.0501 65.287 29.6311C66.6208 30.1998 67.8022 30.9921 68.8344 32.0113C69.8541 33.043 70.6469 34.2237 71.2159 35.5568C71.7942 36.9364 72.0864 38.3782 72.0864 39.8821C72.0864 41.3891 71.7973 42.8309 71.2159 44.2075C70.6469 45.5405 69.8541 46.7213 68.8344 47.7529C67.8022 48.7721 66.6208 49.5644 65.287 50.1331C63.9066 50.711 62.464 51.0031 60.9592 51.0031C59.4513 51.0031 58.0088 50.7141 56.6315 50.1331C55.2977 49.5644 54.1163 48.7721 53.0841 47.7529C52.0643 46.7213 51.2715 45.5405 50.7026 44.2075C50.1243 42.8278 49.832 41.386 49.832 39.8821C49.832 38.3782 50.1212 36.9333 50.7026 35.5568C51.2715 34.2237 52.0643 33.043 53.0841 32.0113C54.1163 30.9921 55.2977 30.1998 56.6315 29.6311C58.0088 29.0501 59.4545 28.7611 60.9592 28.7611ZM54.0075 39.879C54.0075 40.8174 54.1878 41.7216 54.5453 42.5886C54.9028 43.412 55.4034 44.1453 56.0407 44.7947C56.6781 45.4317 57.4149 45.9289 58.2482 46.2893C59.1062 46.6498 60.011 46.8269 60.9592 46.8269C61.8981 46.8269 62.8029 46.6467 63.6703 46.2893C64.4942 45.932 65.2279 45.4317 65.8777 44.7947C66.515 44.1453 67.0063 43.412 67.3545 42.5886C67.7245 41.7185 67.911 40.8174 67.911 39.879C67.911 38.9406 67.7245 38.0364 67.3545 37.1694C67.0063 36.3367 66.515 35.6003 65.8777 34.9633C65.2279 34.3263 64.4911 33.8291 63.6703 33.4686C62.8029 33.1082 61.8981 32.9311 60.9592 32.9311C60.0079 32.9311 59.1062 33.1113 58.2482 33.4686C57.4149 33.8291 56.6781 34.3263 56.0407 34.9633C55.4034 35.6003 54.906 36.3367 54.5453 37.1694C54.1847 38.0395 54.0075 38.9406 54.0075 39.879Z" fill="#C2CEFF"/>
<path d="M97.756 50.304H93.5837V39.879C93.5837 38.9406 93.4034 38.0364 93.0458 37.1694C92.6852 36.346 92.1878 35.6127 91.5504 34.9633C90.9006 34.3263 90.1638 33.8291 89.343 33.4687C88.4725 33.1082 87.5708 32.9311 86.6319 32.9311C85.693 32.9311 84.7883 33.1113 83.9208 33.4687C83.0876 33.8291 82.3508 34.3263 81.7134 34.9633C81.0761 35.6127 80.5786 36.3491 80.218 37.1694C79.8573 38.0364 79.6801 38.9406 79.6801 39.879V50.304H75.5078V39.879C75.5078 38.3751 75.797 36.9302 76.3783 35.5536C76.9473 34.2206 77.7401 33.0398 78.7599 32.0082C79.7921 30.989 80.9735 30.1967 82.3073 29.628C83.6877 29.0501 85.1303 28.758 86.635 28.758C88.1398 28.758 89.5855 29.047 90.9628 29.628C92.2966 30.1967 93.478 30.989 94.5102 32.0082C95.53 33.0398 96.3228 34.2206 96.8917 35.5536C97.47 36.9333 97.7591 38.3751 97.7591 39.879V50.304H97.756Z" fill="#C2CEFF"/>
<path d="M106.322 41.2711C106.645 42.8682 107.441 44.1888 108.704 45.2329C109.991 46.2987 111.467 46.83 113.137 46.83C114.517 46.83 115.78 46.4602 116.927 45.7176C118.04 44.9874 118.879 44.021 119.448 42.8154L123.22 44.5865C122.315 46.51 120.972 48.0512 119.187 49.2071C117.356 50.4003 115.338 50.9969 113.137 50.9969C111.629 50.9969 110.187 50.7079 108.809 50.1269C107.475 49.5582 106.294 48.7659 105.262 47.7467C104.242 46.715 103.449 45.5343 102.88 44.2012C102.302 42.8216 102.01 41.3798 102.01 39.8759C102.01 38.372 102.299 36.9271 102.88 35.5505C103.449 34.2175 104.242 33.0367 105.262 32.0051C106.294 30.9859 107.475 30.1936 108.809 29.6249C110.19 29.047 111.632 28.7549 113.137 28.7549C114.412 28.7549 115.646 28.9631 116.84 29.3794C117.987 29.7865 119.041 30.3645 120.005 31.1164C120.956 31.8684 121.768 32.7571 122.439 33.7732C123.111 34.7924 123.605 35.8986 123.916 37.0918C124.149 37.996 124.264 38.922 124.264 39.8728C124.264 40.3358 124.236 40.7988 124.177 41.2617H106.322V41.2711ZM113.137 32.9311C111.735 32.9311 110.448 33.3195 109.279 34.0963C108.144 34.8483 107.301 35.8519 106.757 37.1011H119.517C118.973 35.8488 118.13 34.8483 116.995 34.0963C115.823 33.3195 114.536 32.9311 113.137 32.9311Z" fill="#C2CEFF"/>
<path d="M189.703 24.9205C187.172 24.2058 184.554 25.2592 183.174 27.338L177.833 25.7905C174.279 24.7713 172.227 21.0643 173.247 17.5158L174.773 12.2583C174.805 12.1495 174.823 12.0439 174.836 11.9351C174.848 11.8792 174.854 11.8233 174.861 11.7673C177.195 11.5281 179.266 9.89673 179.944 7.50722C180.83 4.37818 179.005 1.1093 175.871 0.223725C172.737 -0.661853 169.469 1.16213 168.583 4.29428C167.878 6.78633 168.894 9.36538 170.915 10.7606C170.887 10.8289 170.862 10.8973 170.844 10.9687L169.264 16.4158C168.978 17.4071 168.484 18.2833 167.84 19.0073C166.18 20.8499 163.559 21.6951 161.013 20.9649L155.563 19.3864C155.519 19.374 155.476 19.3647 155.432 19.3553C155.283 16.9223 153.626 14.7317 151.148 14.0325C148.017 13.147 144.747 14.9709 143.86 18.1031C142.974 21.2321 144.799 24.501 147.933 25.3866C150.321 26.0609 152.786 25.1598 154.217 23.3078C154.279 23.3327 154.341 23.3544 154.406 23.3731L159.847 24.9516C163.401 25.9708 165.453 29.6778 164.433 33.2263L162.894 38.5273C160.509 38.7231 158.383 40.3668 157.693 42.7999C156.806 45.9289 158.631 49.1978 161.765 50.0833C164.896 50.9689 168.167 49.1449 169.053 46.0128C169.74 43.5829 168.795 41.0691 166.87 39.6522L168.416 34.3263C168.702 33.335 169.196 32.4588 169.839 31.7348C171.5 29.8922 174.121 29.047 176.667 29.7772L181.927 31.3029C182.033 31.3339 182.139 31.3526 182.241 31.365C182.54 33.6302 184.15 35.6158 186.485 36.2776C189.616 37.1632 192.887 35.3392 193.773 32.2071C194.659 29.0749 192.837 25.8092 189.703 24.9205ZM148.627 22.9474C146.839 22.4409 145.794 20.5765 146.301 18.7867C146.808 16.9969 148.673 15.956 150.464 16.4624C152.252 16.9689 153.296 18.8333 152.79 20.6231C152.283 22.4129 150.414 23.4538 148.627 22.9474ZM171.021 4.9841C171.528 3.19741 173.393 2.15335 175.184 2.65984C176.972 3.16633 178.016 5.03071 177.509 6.82051C177.003 8.61031 175.137 9.65125 173.346 9.14476C171.559 8.63517 170.517 6.77079 171.021 4.9841ZM166.619 45.323C166.112 47.1097 164.246 48.1537 162.456 47.6472C160.668 47.1407 159.623 45.2764 160.13 43.4866C160.631 41.7185 162.462 40.6838 164.231 41.1499C164.253 41.1561 164.271 41.1654 164.293 41.1716C164.318 41.1778 164.343 41.1841 164.368 41.1903C166.109 41.7247 167.116 43.5611 166.619 45.323ZM170.43 26.8688C170.284 27.021 170.11 27.1546 169.917 27.2634C168.863 27.8476 167.533 27.4654 166.948 26.412C166.479 25.5668 166.634 24.5445 167.256 23.8702C167.402 23.718 167.576 23.5844 167.769 23.4756C168.823 22.8914 170.153 23.2736 170.738 24.327C171.207 25.1753 171.052 26.1945 170.43 26.8688ZM187.178 33.8415C185.391 33.335 184.346 31.4707 184.853 29.6809C185.36 27.8911 187.225 26.8501 189.016 27.3566C190.804 27.8631 191.848 29.7275 191.341 31.5173C190.835 33.3071 188.966 34.3449 187.178 33.8415Z" fill="#C2CEFF"/>
<path d="M189.567 27.5586C187.148 26.5301 184.419 27.2448 182.787 29.134L177.682 26.9247C174.286 25.4643 172.72 21.5304 174.178 18.1373L176.357 13.1159C176.401 13.0133 176.435 12.9077 176.46 12.8052C176.478 12.7523 176.494 12.6964 176.506 12.6436C178.854 12.6995 181.111 11.3447 182.087 9.05776C183.362 6.06544 181.963 2.59149 178.969 1.3175C175.975 0.0435064 172.499 1.44179 171.224 4.43411C170.211 6.81741 170.891 9.50211 172.723 11.1428C172.688 11.2049 172.654 11.2702 172.626 11.3385L170.369 16.5432C169.962 17.491 169.359 18.2989 168.628 18.9358C166.75 20.5547 164.039 21.0612 161.608 20.0172L156.4 17.7613C156.36 17.7426 156.316 17.7302 156.276 17.7147C156.434 15.2817 155.066 12.9015 152.701 11.8947C149.707 10.6207 146.231 12.019 144.956 15.0113C143.681 18.0037 145.08 21.4776 148.074 22.7516C150.356 23.7242 152.918 23.14 154.569 21.4838C154.628 21.5149 154.687 21.546 154.749 21.5708L159.948 23.8236C163.343 25.284 164.91 29.2179 163.452 32.611L161.257 37.6759C158.866 37.5703 156.546 38.9313 155.558 41.2586C154.283 44.251 155.682 47.7249 158.676 48.9989C161.67 50.2729 165.146 48.8746 166.421 45.8823C167.409 43.558 166.788 40.9479 165.059 39.2979L167.266 34.2082C167.674 33.2605 168.277 32.4526 169.007 31.8156C170.885 30.1967 173.593 29.6902 176.028 30.7342L181.052 32.9125C181.151 32.956 181.254 32.987 181.356 33.0119C181.366 35.2957 182.712 37.4709 184.947 38.4217C187.941 39.6957 191.417 38.2974 192.692 35.3051C193.96 32.3034 192.561 28.8326 189.567 27.5586ZM149.066 20.418C147.356 19.6909 146.557 17.7085 147.285 15.9995C148.012 14.2904 149.996 13.4919 151.706 14.219C153.416 14.9461 154.215 16.9285 153.487 18.6375C152.76 20.3466 150.776 21.1451 149.066 20.418ZM173.553 5.42223C174.28 3.71322 176.264 2.91465 177.974 3.64175C179.684 4.36886 180.483 6.35131 179.755 8.06032C179.028 9.76933 177.044 10.5679 175.334 9.8408C173.624 9.1137 172.825 7.13124 173.553 5.42223ZM164.089 44.8817C163.361 46.5908 161.378 47.3893 159.668 46.6622C157.958 45.9351 157.159 43.9527 157.886 42.2437C158.608 40.5533 160.554 39.7547 162.251 40.4414C162.27 40.4507 162.289 40.4632 162.311 40.4725C162.335 40.4818 162.357 40.4911 162.382 40.4974C164.039 41.2493 164.807 43.1976 164.089 44.8817ZM170.201 27.0583C170.036 27.1919 169.85 27.3007 169.642 27.3846C168.522 27.832 167.251 27.2851 166.803 26.1634C166.446 25.2654 166.728 24.2711 167.431 23.6807C167.596 23.5471 167.782 23.4383 167.991 23.3544C169.11 22.907 170.382 23.4539 170.829 24.5756C171.187 25.4736 170.904 26.4679 170.201 27.0583ZM185.936 36.0881C184.226 35.361 183.427 33.3785 184.155 31.6695C184.882 29.9605 186.866 29.162 188.576 29.8891C190.285 30.6162 191.085 32.5986 190.357 34.3076C189.63 36.0166 187.646 36.8152 185.936 36.0881Z" fill="white"/>
<path d="M45.1656 21.4559C45.0723 21.5149 45.0039 21.5491 44.9604 21.5584C43.2971 22.475 41.5529 22.9349 39.7279 22.9349C39.19 22.9349 38.6397 22.8945 38.077 22.8137C35.6924 22.4688 33.6373 21.4559 31.918 19.7686C31.688 19.5387 31.4703 19.3056 31.2651 19.0632L34.4301 16.3972C34.5576 16.5463 34.6944 16.6955 34.8436 16.8446C35.0737 17.0621 35.3131 17.2703 35.5649 17.463C36.6438 18.2647 37.8594 18.7059 39.2118 18.7867C39.3735 18.7991 39.532 18.8022 39.6937 18.8022C40.8969 18.8022 42.0348 18.4915 43.1012 17.8731C43.6733 17.5407 44.0463 17.0528 44.2204 16.4127C44.2764 16.1952 44.3075 15.9777 44.3075 15.7602C44.3075 15.3593 44.1987 14.9678 43.9811 14.5918C43.7292 14.1661 43.3686 13.8523 42.896 13.6472C42.5758 13.5105 42.2462 13.4421 41.9136 13.4421C41.6959 13.4421 41.4721 13.4701 41.242 13.5292C41.0586 13.5758 40.8565 13.6441 40.6389 13.7342C39.7217 14.1351 38.8139 14.3774 37.9216 14.4551C37.7257 14.4676 37.5329 14.4738 37.3371 14.4738C36.7059 14.4738 36.1152 14.3868 35.5649 14.2159C34.3617 13.8368 33.4415 13.3334 32.8134 12.7026C32.3999 12.2893 32.0455 11.8326 31.747 11.3261C31.3118 10.571 31.0351 9.76622 30.92 8.91793C30.8858 8.64138 30.8672 8.36794 30.8672 8.09139C30.8672 7.55383 30.9356 7.01316 31.0724 6.4756C31.2683 5.66149 31.6102 4.91574 32.1046 4.24146C32.5989 3.54231 33.2114 2.96747 33.9451 2.52312C33.9793 2.50137 34.0415 2.46098 34.1348 2.40194C34.2374 2.34601 34.3058 2.30872 34.34 2.2994C36.0157 1.38275 37.763 0.922867 39.588 0.922867C40.1507 0.922867 40.7166 0.963262 41.2917 1.04405C43.7106 1.41071 45.7781 2.46719 47.4849 4.20728L44.5593 7.13124C44.3199 6.86712 44.0432 6.62164 43.7323 6.3917C42.6411 5.59934 41.4254 5.15811 40.0854 5.068C39.9238 5.05557 39.7652 5.04935 39.6035 5.04935C38.4004 5.04935 37.2625 5.36008 36.1961 5.97843C35.624 6.31091 35.2509 6.79876 35.0768 7.43886C35.0084 7.65637 34.9742 7.87388 34.9742 8.09139C34.9742 8.49223 35.0892 8.88375 35.3193 9.25973C35.5711 9.68543 35.9318 9.99927 36.4044 10.2044C36.7246 10.3411 37.051 10.4094 37.3837 10.4094C37.6013 10.4094 37.8252 10.3815 38.0553 10.3224C38.2511 10.2758 38.4501 10.2075 38.6584 10.1173C39.5631 9.71651 40.471 9.47414 41.3757 9.39645C41.5716 9.38402 41.7643 9.37781 41.9602 9.37781C42.5913 9.37781 43.182 9.46481 43.7323 9.63572C44.9262 10.0148 45.8434 10.5182 46.4838 11.149C46.8973 11.5622 47.2517 12.019 47.5502 12.5255C47.9855 13.2806 48.256 14.0854 48.3586 14.9336C48.4052 15.2319 48.427 15.524 48.427 15.8099C48.427 16.3381 48.3586 16.8633 48.2218 17.3915C48.0259 18.1932 47.6839 18.9327 47.1896 19.6101C46.6952 20.3093 46.0828 20.8841 45.349 21.3285C45.321 21.3595 45.2589 21.3999 45.1656 21.4559Z" fill="white"/>
<path d="M56.3956 13.3054C56.7159 14.887 57.5025 16.1952 58.7523 17.2268C60.027 18.2802 61.4882 18.8084 63.1391 18.8084C64.504 18.8084 65.7538 18.4418 66.8886 17.7085C67.9892 16.9876 68.8224 16.0305 69.3851 14.8373L73.1191 16.5898C72.2237 18.4915 70.893 20.0172 69.1271 21.1638C67.3145 22.3445 65.3185 22.9349 63.1391 22.9349C61.6468 22.9349 60.2197 22.6491 58.8549 22.0742C57.5367 21.5118 56.3646 20.7256 55.3448 19.7189C54.3344 18.6997 53.5478 17.5282 52.9881 16.2107C52.4161 14.8466 52.127 13.4204 52.127 11.9289C52.127 10.4374 52.413 9.01115 52.9881 7.64705C53.5509 6.32956 54.3375 5.15811 55.3448 4.13891C56.3646 3.12904 57.5367 2.34601 58.8549 1.78359C60.2197 1.21184 61.6468 0.922867 63.1391 0.922867C64.4014 0.922867 65.6232 1.12795 66.8047 1.54122C67.9394 1.94206 68.9841 2.51691 69.9354 3.25955C70.8775 4.0053 71.6796 4.88156 72.3449 5.89143C73.0103 6.9013 73.4984 7.99507 73.8062 9.17584C74.0362 10.0707 74.1513 10.9874 74.1513 11.9258C74.1513 12.3857 74.1233 12.8424 74.0642 13.3023H56.3956V13.3054ZM63.1391 5.04935C61.7525 5.04935 60.4778 5.43466 59.3181 6.20216C58.1927 6.94791 57.3625 7.93913 56.8216 9.17894H69.4504C68.9126 7.93913 68.0794 6.94791 66.9539 6.20216C65.8004 5.43466 64.5288 5.04935 63.1391 5.04935Z" fill="white"/>
<path d="M94.8074 10.1422C94.4187 8.66313 93.6073 7.44818 92.3823 6.49735C91.1449 5.53409 89.7365 5.05246 88.1665 5.05246C87.2244 5.05246 86.3321 5.22957 85.4834 5.58691C84.6564 5.94114 83.9289 6.4352 83.2977 7.06599C82.6666 7.70919 82.1723 8.4363 81.8178 9.25041C81.4634 10.1111 81.2831 11.006 81.2831 11.932V22.2482H77.1543V11.9289C77.1543 10.4374 77.4403 9.01115 78.0155 7.64705C78.5782 6.32956 79.3648 5.15811 80.3721 4.13891C81.3919 3.12904 82.564 2.34601 83.8822 1.78359C85.2471 1.21184 86.6741 0.922867 88.1665 0.922867C90.691 0.922867 92.945 1.69658 94.9286 3.24401C95.8706 3.97734 96.6665 4.83806 97.3194 5.82307C97.9972 6.83294 98.4884 7.91428 98.7993 9.0733L94.8074 10.1422Z" fill="white"/>
<path d="M133.267 1.08755L128.504 7.32078L126.113 5.93804L128.918 1.08755H133.267Z" fill="white"/>
<path d="M60.9591 42.1318C62.204 42.1318 63.2132 41.1232 63.2132 39.879C63.2132 38.6348 62.204 37.6262 60.9591 37.6262C59.7142 37.6262 58.7051 38.6348 58.7051 39.879C58.7051 41.1232 59.7142 42.1318 60.9591 42.1318Z" fill="#C2CEFF"/>
<path d="M118.934 1.08755L111.432 14.0791L103.911 1.08755H98.8027L108.876 18.5164L111.432 22.9349L113.969 18.5164L124.039 1.08755H118.934Z" fill="white"/>
</g>
<defs>
<clipPath id="clip0_102:90">
<rect width="194" height="51" fill="white"/>
</clipPath>
</defs>
</svg>
