<svg width="40" height="50" viewBox="0 0 40 50" fill="none" xmlns="http://www.w3.org/2000/svg">
<path d="M2.85714 45.3125C2.85714 46.5557 3.30867 47.748 4.1124 48.6271C4.91613 49.5062 6.00622 50 7.14286 50H32.8571C33.9938 50 35.0839 49.5062 35.8876 48.6271C36.6913 47.748 37.1429 46.5557 37.1429 45.3125V12.5H2.85714V45.3125ZM27.1429 20.3125C27.1429 19.8981 27.2934 19.5007 27.5613 19.2077C27.8292 18.9146 28.1925 18.75 28.5714 18.75C28.9503 18.75 29.3137 18.9146 29.5816 19.2077C29.8495 19.5007 30 19.8981 30 20.3125V42.1875C30 42.6019 29.8495 42.9993 29.5816 43.2924C29.3137 43.5854 28.9503 43.75 28.5714 43.75C28.1925 43.75 27.8292 43.5854 27.5613 43.2924C27.2934 42.9993 27.1429 42.6019 27.1429 42.1875V20.3125ZM18.5714 20.3125C18.5714 19.8981 18.7219 19.5007 18.9898 19.2077C19.2578 18.9146 19.6211 18.75 20 18.75C20.3789 18.75 20.7422 18.9146 21.0102 19.2077C21.2781 19.5007 21.4286 19.8981 21.4286 20.3125V42.1875C21.4286 42.6019 21.2781 42.9993 21.0102 43.2924C20.7422 43.5854 20.3789 43.75 20 43.75C19.6211 43.75 19.2578 43.5854 18.9898 43.2924C18.7219 42.9993 18.5714 42.6019 18.5714 42.1875V20.3125ZM10 20.3125C10 19.8981 10.1505 19.5007 10.4184 19.2077C10.6863 18.9146 11.0497 18.75 11.4286 18.75C11.8075 18.75 12.1708 18.9146 12.4387 19.2077C12.7066 19.5007 12.8571 19.8981 12.8571 20.3125V42.1875C12.8571 42.6019 12.7066 42.9993 12.4387 43.2924C12.1708 43.5854 11.8075 43.75 11.4286 43.75C11.0497 43.75 10.6863 43.5854 10.4184 43.2924C10.1505 42.9993 10 42.6019 10 42.1875V20.3125ZM38.5714 3.12502H27.8571L27.0179 1.29885C26.8401 0.908429 26.5662 0.58002 26.2271 0.350563C25.8879 0.121105 25.497 -0.0002957 25.0982 1.71218e-05H14.8929C14.495 -0.00165578 14.1047 0.119293 13.7668 0.349005C13.4289 0.578717 13.1569 0.907903 12.9821 1.29885L12.1429 3.12502H1.42857C1.04969 3.12502 0.686328 3.28964 0.418419 3.58266C0.15051 3.87569 0 4.27312 0 4.68752L0 7.81252C0 8.22692 0.15051 8.62435 0.418419 8.91737C0.686328 9.2104 1.04969 9.37502 1.42857 9.37502H38.5714C38.9503 9.37502 39.3137 9.2104 39.5816 8.91737C39.8495 8.62435 40 8.22692 40 7.81252V4.68752C40 4.27312 39.8495 3.87569 39.5816 3.58266C39.3137 3.28964 38.9503 3.12502 38.5714 3.12502Z" fill="#494368"/>
</svg>
