<svg width="45" height="40" viewBox="0 0 45 40" fill="none" xmlns="http://www.w3.org/2000/svg">
<path d="M41.2594 23.5405L44.9526 7.29055C45.2192 6.11727 44.3274 5 43.1242 5H12.4381L11.722 1.49922C11.5436 0.626641 10.7758 0 9.88508 0H1.875C0.839453 0 0 0.839453 0 1.875V3.125C0 4.16055 0.839453 5 1.875 5H7.33461L12.8227 31.8309C11.5098 32.5859 10.625 34.0017 10.625 35.625C10.625 38.0412 12.5837 40 15 40C17.4163 40 19.375 38.0412 19.375 35.625C19.375 34.4005 18.8713 33.2941 18.0606 32.5H34.4393C33.6287 33.2941 33.125 34.4005 33.125 35.625C33.125 38.0412 35.0838 40 37.5 40C39.9162 40 41.875 38.0412 41.875 35.625C41.875 33.8928 40.8681 32.3959 39.4079 31.6871L39.8389 29.7905C40.1055 28.6173 39.2137 27.5 38.0105 27.5H17.0404L16.5291 25H39.431C40.3065 25 41.0654 24.3942 41.2594 23.5405Z" fill="white"/>
</svg>
