<svg width="50" height="42" viewBox="0 0 50 42" fill="none" xmlns="http://www.w3.org/2000/svg">
<path d="M9.73333 6.72L9.03917 2.52H6.5475C6.17583 1.0752 4.8825 0 3.33333 0C1.495 0 0 1.50696 0 3.36C0 5.21304 1.495 6.72 3.33333 6.72C4.8825 6.72 6.17583 5.6448 6.54833 4.2H7.62667L8.04333 6.72H8.01167L12.3208 28.5734C10.2667 28.7314 8.55583 30.3257 8.35417 32.3316C8.23583 33.5118 8.62083 34.6937 9.41083 35.5723C10.2017 36.4535 11.3283 36.96 12.5 36.96H14.1667C14.1667 39.7396 16.4092 42 19.1667 42C21.9242 42 24.1667 39.7396 24.1667 36.96H33.3333C33.3333 39.7396 35.5758 42 38.3333 42C41.0908 42 43.3333 39.7396 43.3333 36.96H46.6667C47.1275 36.96 47.5 36.5845 47.5 36.12C47.5 35.6555 47.1275 35.28 46.6667 35.28H43.0417C42.3533 33.3253 40.5058 31.92 38.3333 31.92C36.1608 31.92 34.3133 33.3253 33.625 35.28H23.875C23.1867 33.3253 21.3392 31.92 19.1667 31.92C16.9942 31.92 15.1467 33.3253 14.4583 35.28H12.5C11.7983 35.28 11.1233 34.9759 10.6467 34.4459C10.1658 33.9091 9.94 33.2186 10.0125 32.5004C10.1392 31.2329 11.3008 30.2408 12.6567 30.2408H13.3158C13.3275 30.2408 13.3367 30.2408 13.3483 30.2408H45.8433C48.1358 30.24 50 28.3609 50 26.0509V6.72H9.73333ZM3.33333 5.04C2.41417 5.04 1.66667 4.28652 1.66667 3.36C1.66667 2.43348 2.41417 1.68 3.33333 1.68C4.2525 1.68 5 2.43348 5 3.36C5 4.28652 4.2525 5.04 3.33333 5.04Z" fill="white"/>
</svg>
